<?xml version="1.0" standalone="no"?><!DOCTYPE svg PUBLIC "-//W3C//DTD SVG 1.1//EN" "http://www.w3.org/Graphics/SVG/1.1/DTD/svg11.dtd"><svg t="1680491291306" class="icon" viewBox="0 0 1024 1024" version="1.1" xmlns="http://www.w3.org/2000/svg" p-id="66548" xmlns:xlink="http://www.w3.org/1999/xlink" width="250" height="250"><path d="M785.4 262.8c-13-7.1-29.3-2.3-36.4 10.8-7.1 13-2.3 29.3 10.8 36.4 90.6 49.2 146.9 143.8 146.9 246.8 0 154.8-125.9 280.7-280.7 280.7-17 0-34.1-1.5-50.6-4.6-14.6-2.6-28.6 7-31.2 21.6-2.7 14.6 7 28.6 21.6 31.2 19.7 3.6 40 5.4 60.3 5.4 184.4 0 334.4-150 334.4-334.4-0.1-122.6-67.2-235.3-175.1-293.9z" fill="#333333" p-id="66549"></path><path d="M417.9 785.6c165.4 0 300-134.6 300-300 0-45-9.9-87.8-27.6-126.3-0.3 81.6-60.3 211.8-173.5 288.8-112.3 76.4-247.1 72.7-317.7 42.4 54.7 58.5 132.6 95.1 218.8 95.1z" fill="#FFD524" p-id="66550"></path><path d="M771.6 485.6c0-182.2-136.5-333.5-317.6-351.9-14.8-1.5-27.9 9.2-29.4 24-1.5 14.7 9.2 27.9 24 29.4 108.8 11 198.6 78.7 241.7 172.2 17.7 38.4 27.6 81.2 27.6 126.3 0 165.4-134.6 300-300 300-86.2 0-164-36.6-218.8-95.1-50.3-53.7-81.2-125.7-81.2-204.9 0-105.4 56.4-204.3 147.1-258.2 12.7-7.6 16.9-24 9.4-36.8-7.6-12.7-24-16.9-36.8-9.4-107 63.6-173.4 180.2-173.4 304.4 0 195 158.7 353.7 353.7 353.7s353.7-158.7 353.7-353.7z" fill="#333333" p-id="66551"></path><path d="M336.7 195.8c2.2 0 4.4-0.3 6.7-0.8 4.6-1.2 9.3-2.3 14.1-3.2 14.5-3 23.9-17.2 20.9-31.7s-17.2-23.8-31.7-20.9c-5.6 1.1-11.1 2.4-16.6 3.8-14.4 3.7-23 18.3-19.4 32.6 3.1 12.1 14 20.2 26 20.2zM241.7 452.3c-10.8 10.2-11.3 27.2-1.1 37.9L361 617.6c5 5.3 11.9 8.3 19.1 8.4h0.4c7.1 0 13.9-2.8 19-7.8l218.4-217.8c10.5-10.5 10.5-27.5 0-38s-27.5-10.5-38 0L381.1 560.7 279.7 453.3c-10.2-10.7-27.2-11.2-38-1z" fill="#333333" p-id="66552"></path></svg>