<?xml version="1.0" standalone="no"?><!DOCTYPE svg PUBLIC "-//W3C//DTD SVG 1.1//EN" "http://www.w3.org/Graphics/SVG/1.1/DTD/svg11.dtd"><svg t="1680491665212" class="icon" viewBox="0 0 1024 1024" version="1.1" xmlns="http://www.w3.org/2000/svg" p-id="81047" xmlns:xlink="http://www.w3.org/1999/xlink" width="250" height="250"><path d="M55.631503 0m126.568944 0l642.385093 0q126.568944 0 126.568944 126.568944l0 770.607702q0 126.568944-126.568944 126.568944l-642.385093 0q-126.568944 0-126.568944-126.568944l0-770.607702q0-126.568944 126.568944-126.568944Z" fill="#2588C4" p-id="81048"></path><path d="M392.088646 752.417391L264.883677 616.944099 583.532124 316.740373 710.737093 451.57764l-318.648447 300.839751zM511.661317 334.549068l-51.518013 48.337889c-9.540373 8.904348-19.080745 17.172671-27.985093 26.713043s-8.268323 3.816149-12.084472-0.636025-5.724224-15.264596 2.5441-23.532919l35.617391-34.345342a39.43354 39.43354 0 0 1 7.632298-5.088198l-12.720497-12.084473-38.797515 37.525466q-15.900621 15.264596-26.713044 3.816149c-6.996273-6.996273-5.088199-15.264596 5.088199-26.077018s24.168944-26.713043 36.253416-40.069565l3.180124 1.908074-10.812422-11.448447c-11.448447 11.448447-22.26087 22.26087-33.709317 32.437267l-8.268323 8.268323c-8.268323 7.632298-17.172671 8.268323-23.532919 1.908074s-5.724224-15.900621 1.908074-23.532919l32.437267-31.165217c3.180124-3.180124 6.996273-5.724224 10.812423-10.176398l-12.084472-10.812422-38.161491 36.889441-6.360248 5.724224a15.264596 15.264596 0 1 1-20.98882-21.624845c3.180124-3.816149 7.632298-7.632298 11.448447-11.448447l30.529192-33.709317c-6.996273-8.268323-22.26087-8.904348-33.709316 1.908074l-61.69441 59.150311-32.437267 31.165217c-13.356522 13.356522-13.356522 26.713043-0.636025 40.069566l103.036025 107.488198a41.341615 41.341615 0 0 1 6.996273 7.632298l-28.621118 27.349069-25.440994-24.168944c-38.797516-40.70559-77.595031-81.41118-117.028571-121.480746-12.084472-12.720497-12.084472-22.896894 1.272049-35.617391l157.098137-152.009938c11.448447-10.176398 22.896894-10.176398 33.073292 0 47.065839 48.973913 94.767702 97.947826 141.83354 147.557764l2.5441 3.180124zM680.843925 568.606211l-59.786335 57.878261-13.992547 13.356522a15.900621 15.900621 0 0 1-26.077018-7.632298 13.356522 13.356522 0 0 1 3.180124-10.812423c34.345342-33.709317 69.962733-66.782609 104.944099-99.8559l2.5441-1.27205 59.15031 61.058385 68.054659 71.234783c12.084472 12.084472 12.084472 22.896894 0 34.981366l-157.098137 151.373913c-12.720497 12.084472-22.896894 12.084472-35.617391-0.636025l-127.204969-131.657143-2.5441-3.180124 26.713044-25.440994c15.264596 13.992547 30.529193 26.713043 45.157764 40.705591s38.797516 40.069565 57.878261 59.786335a24.168944 24.168944 0 0 0 37.525466 0.636025l94.767702-91.587578c10.812422-10.176398 12.720497-24.168944 2.544099-34.981366-25.440994-28.621118-52.790062-55.970186-80.139131-83.95528zM776.247652 390.519255l-127.204969-135.473292c18.44472-17.808696 36.253416-35.617391 55.970187-51.518013s37.525466-8.268323 51.518012 6.360249l70.598758 75.050931c14.628571 15.900621 16.536646 37.525466 3.816149 52.154038s-36.253416 34.981366-54.698137 53.426087zM247.074981 634.752795c41.97764 45.157764 83.95528 89.043478 126.568944 134.201242l-19.71677 6.360249-137.381366 43.249689-4.452174 1.27205a20.352795 20.352795 0 0 1-22.26087-4.452174 20.352795 20.352795 0 0 1-3.180124-23.532919l16.536646-43.885715 41.341615-108.760248 2.544099-4.452174zM598.160696 302.747826l36.889441-34.981366 127.204969 134.837267-36.889441 34.981366-127.204969-134.837267z" fill="#C7E2F3" p-id="81049"></path><path d="M647.134609 683.726708a23.532919 23.532919 0 0 1 46.429813 0 23.532919 23.532919 0 0 1-46.429813 0z" fill="#C7E2F3" p-id="81050"></path></svg>