<?xml version="1.0" standalone="no"?><!DOCTYPE svg PUBLIC "-//W3C//DTD SVG 1.1//EN" "http://www.w3.org/Graphics/SVG/1.1/DTD/svg11.dtd"><svg t="1680487742513" class="icon" viewBox="0 0 1024 1024" version="1.1" xmlns="http://www.w3.org/2000/svg" p-id="61824" xmlns:xlink="http://www.w3.org/1999/xlink" width="250" height="250"><path d="M592.408854 593.204194a84.306019 84.306019 0 0 0 42.252428-11.413126v95.908039c0.029825 4.672621-0.238602 9.335301-0.845049 13.948272-6.969165-31.68435-60.64466-56.190757-125.912233-56.190758-65.287456 0-118.943068 24.506408-125.922175 56.190758a100.461359 100.461359 0 0 1-0.835107-13.948272V581.791068a84.36567 84.36567 0 1 0 126.757282-73.091728 84.504854 84.504854 0 0 0 84.504854 84.504854" fill="#C1CAD4" p-id="61825"></path><path d="M633.806291 691.647379a126.618097 126.618097 0 0 1-215.487378 75.626873 124.918058 124.918058 0 0 1-36.327146-75.626873c6.959223-31.694291 60.624777-56.190757 125.902291-56.190758s118.943068 24.496466 125.912233 56.190758" fill="#F3596B" p-id="61826"></path><path d="M993.796971 65.048854v887.300971a42.371728 42.371728 0 0 1-42.252427 42.242486H64.243573a42.371728 42.371728 0 0 1-42.252427-42.242486V65.048854a42.371728 42.371728 0 0 1 42.252427-42.252427h887.300971a42.371728 42.371728 0 0 1 42.252427 42.252427M633.806291 691.647379c0.606447-4.612971 0.894757-9.27565 0.845049-13.948272V581.791068a84.36567 84.36567 0 1 1-126.757282-73.091728 84.36567 84.36567 0 0 1-126.757281 73.091728v95.908039c-0.039767 4.672621 0.238602 9.335301 0.845048 13.948272a126.757282 126.757282 0 0 0 125.912233 112.809009A126.757282 126.757282 0 0 0 633.806291 691.647379" fill="#FFD0AA" p-id="61827"></path><path d="M972.680699 952.349825a21.136155 21.136155 0 0 1-21.126214 21.126214H64.253515a21.126214 21.126214 0 0 1-21.126214-21.126214V65.048854c0-11.671612 9.44466-21.136155 21.126214-21.136155h887.30097c11.66167 0 21.126214 9.464544 21.126214 21.136155v887.300971zM951.554485 1.670214H64.253515A63.378641 63.378641 0 0 0 0.874874 65.048854v887.300971a63.378641 63.378641 0 0 0 63.378641 63.378641h887.30097a63.378641 63.378641 0 0 0 63.378641-63.378641V65.048854A63.378641 63.378641 0 0 0 951.554485 1.670214z" fill="#2F333A" p-id="61828"></path><path d="M507.894058 783.340117a104.964971 104.964971 0 0 1-104.05033-89.764039c6.869748-15.996272 45.085825-36.993243 104.05033-36.993243 58.288466 0 96.275883 20.529709 103.99068 37.26167a105.183689 105.183689 0 0 1-103.99068 89.495612m0-211.262136a105.631068 105.631068 0 0 0 84.504855 42.242485 104.786019 104.786019 0 0 0 21.126213-2.376078v26.932195a214.632388 214.632388 0 0 0-105.631068-24.556117 216.431845 216.431845 0 0 0-105.631068 24.40699V611.914563a103.394175 103.394175 0 0 0 21.126214 2.405903c33.245204 0 64.561709-15.648311 84.504854-42.242485m116.199146-8.599612a62.891495 62.891495 0 0 1-31.694291 8.599612 63.378641 63.378641 0 0 1-63.378641-63.378641 21.126214 21.126214 0 1 0-42.252427 0 63.378641 63.378641 0 1 1-126.757282 0h-42.252427a105.601243 105.601243 0 0 0 42.252427 84.325903v84.673864c-0.019883 4.89134 0.258485 9.772738 0.825165 14.62431 0.029825 2.157359 0.407612 4.294835 1.103534 6.332894a147.535534 147.535534 0 0 0 292.128311 0.178951c0.676039-2.84334 0.994175-5.766214 0.924582-8.689087 0.407612-4.115883 0.79534-8.221825 0.79534-12.447068V593.025243a105.601243 105.601243 0 0 0 42.252427-84.325903h-42.252427a63.388583 63.388583 0 0 1-31.694291 54.779029M761.408621 360.805903v-42.242486c-82.914175 0-147.883495 46.467728-147.883495 105.621127h42.252427c0-34.348738 48.376544-63.378641 105.631068-63.378641M360.010563 424.184544h42.252427c0-59.153398-64.959379-105.621126-147.883495-105.621127v42.242486c57.264466 0 105.631068 29.029903 105.631068 63.378641M761.418563 529.825553h84.504854v-42.252427h-84.504854zM761.418563 614.320466h84.504854v-42.242485h-84.504854zM169.884583 529.825553h84.504854v-42.252427h-84.504854zM169.884583 614.320466h84.504854v-42.242485h-84.504854z" fill="#2F333A" p-id="61829"></path></svg>