<?xml version="1.0" standalone="no"?><!DOCTYPE svg PUBLIC "-//W3C//DTD SVG 1.1//EN" "http://www.w3.org/Graphics/SVG/1.1/DTD/svg11.dtd"><svg t="1680341340496" class="icon" viewBox="0 0 1024 1024" version="1.1" xmlns="http://www.w3.org/2000/svg" p-id="25453" xmlns:xlink="http://www.w3.org/1999/xlink" width="250" height="250"><path d="M87.648317 542.415842a450.762772 450.762772 0 1 0 901.525544 2.737425A450.762772 450.762772 0 1 0 87.648317 542.415842z" fill="#E5F3FF" p-id="25454"></path><path d="M512 1018.930693h-1.571485A506.930693 506.930693 0 0 1 154.664554 152.434059 503.58495 503.58495 0 0 1 512 5.069307h1.571485A506.930693 506.930693 0 0 1 1018.930693 513.571485 507.53901 507.53901 0 0 1 512 1018.930693z m0-993.989703a487.05901 487.05901 0 0 0-345.473267 830.403168 483.865347 483.865347 0 0 0 343.952475 143.714852h1.520792a487.05901 487.05901 0 0 0 1.470099-974.11802z m496.792079 488.579802z" fill="#5E482A" p-id="25455"></path><path d="M792.890297 320.228119C521.023366 192.633663 512.963168 190.808713 512.963168 190.808713s-8.009505 1.82495-280.636831 127.695841l-0.811089 271.51208c-0.304158 101.386139 195.421782 257.774257 279.470891 258.027722s280.788911-154.91802 281.093069-256.304158z" fill="#32BAFD" p-id="25456"></path><path d="M511.138218 860.464158c-43.59604 0-114.059406-37.107327-179.504159-94.137029-101.386139-88.611485-112.437228-152.839604-112.335841-176.310495l0.811089-271.51208a12.419802 12.419802 0 0 1 6.995643-11.304554c173.927921-80.196436 277.037624-126.986139 282.867327-128.456238a12.470495 12.470495 0 0 1 6.032475 0c5.829703 1.470099 108.685941 48.918812 282.106931 130.179802a12.419802 12.419802 0 0 1 7.147723 11.304555l-0.811089 271.512079c0 23.470891-11.253861 87.648317-113.451089 175.651485-65.647525 56.573465-136.212277 93.072475-179.85901 93.072475zM244.695446 326.463366l-0.81109 263.603961c0 41.213465 39.64198 101.386139 103.819406 157.503366 59.310891 51.706931 126.428515 87.901782 163.231684 88.053861 36.853861 0 104.072871-35.738614 163.637227-87.04 64.532277-55.762376 104.681188-115.681584 104.833268-157.148514l0.811089-263.603961c-202.772277-95.049505-254.529901-118.216238-267.507327-123.843168-12.774653 5.829703-64.532277 28.692277-268.014257 122.474455z" fill="#5E482A" p-id="25457"></path><path d="M709.70297 379.082772c-191.518416-89.726733-197.145347-91.247525-197.145346-91.247524s-5.626931 1.419406-197.702971 89.929504L314.29703 569.131089c0 71.426535 137.631683 181.582574 196.891881 181.785347s197.70297-109.142178 198.007129-180.568713z" fill="#FFFFFF" p-id="25458"></path><path d="M511.391683 763.336238c-38.32396 0-93.376634-36.296238-128.861782-67.21901-24.231287-21.13901-80.551287-76.039604-80.399208-126.986139l0.608317-191.26495a12.419802 12.419802 0 0 1 7.198416-11.253862c88.104554-40.554455 194.306535-89.321188 199.882772-90.689901a12.267723 12.267723 0 0 1 6.032475 0c5.626931 1.419406 111.524752 50.693069 199.375842 91.957228a12.419802 12.419802 0 0 1 7.147723 11.304554l-0.608317 191.264951c0 51.2-56.826931 105.54297-81.108911 126.732673-35.789307 30.365149-90.943366 66.154455-129.267327 66.154456z m-184.015841-377.511288l-0.557624 183.306139c0 27.982574 27.475644 69.449505 71.882772 108.17901 41.162772 35.890693 87.496238 60.831683 112.589307 61.085149 25.346535 0 71.527921-24.839604 112.842772-60.426139 44.660594-38.47604 72.491089-79.740198 72.541782-107.773465l0.557624-183.306139C562.693069 323.827327 523.659406 306.287525 512.608317 301.42099c-11.051089 4.765149-50.034059 22.102178-185.232475 84.40396z" fill="#5E482A" p-id="25459"></path><path d="M485.183366 602.791287l-83.947722-80.196436a5.77901 5.77901 0 0 1-1.824951-4.258217 5.576238 5.576238 0 0 1 1.875644-4.156832l33.153267-31.328317a6.032475 6.032475 0 0 1 8.161584 0l42.93703 41.010693a6.133861 6.133861 0 0 0 4.106138 1.622178 6.285941 6.285941 0 0 0 4.055446-1.571485l104.985347-99.054257a6.083168 6.083168 0 0 1 4.106138-1.622178 6.184554 6.184554 0 0 1 4.156832 1.622178L639.746535 456.237624a5.77901 5.77901 0 0 1 1.82495 4.207525 5.576238 5.576238 0 0 1-1.875643 4.156831l-146.300198 138.189307a6.133861 6.133861 0 0 1-4.055446 1.622178 6.032475 6.032475 0 0 1-4.106139-1.622178" fill="#FFCF06" p-id="25460"></path><path d="M489.340198 616.833267a18.350891 18.350891 0 0 1-12.622574-5.069307l-84.099802-80.196435a18.300198 18.300198 0 0 1-5.677624-13.281584 17.945347 17.945347 0 0 1 6.133861-13.433664L425.821782 473.878812a18.300198 18.300198 0 0 1 12.571881-5.069307 18.300198 18.300198 0 0 1 12.571882 5.069307l38.526732 36.803168L590.11802 415.683168a18.65505 18.65505 0 0 1 12.571881-5.069307 18.553663 18.553663 0 0 1 12.470495 5.069307l33.102574 31.683169a18.300198 18.300198 0 0 1 5.677624 13.281584 17.99604 17.99604 0 0 1-6.083168 13.484356L501.861386 611.865347a18.65505 18.65505 0 0 1-12.521188 4.96792z m-74.468119-98.395247l74.468119 70.970297 136.871287-129.013862-23.420198-22.406336-100.625742 94.998812a18.908515 18.908515 0 0 1-12.571882 5.069307 18.50297 18.50297 0 0 1-12.419802-5.069307l-38.628118-36.955248z m-4.765148 4.511683l-0.304159 0.253465z m-0.304159-9.378218z m221.376634-48.209109z m0-9.631683z" fill="#5E482A" p-id="25461"></path></svg>